<svg xmlns="http://www.w3.org/2000/svg" version="1.1" xmlns:xlink="http://www.w3.org/1999/xlink" xmlns:svgjs="http://svgjs.com/svgjs" width="1440" height="560" preserveAspectRatio="none" viewBox="0 0 1440 560">
    <g mask="url(&quot;#SvgjsMask1089&quot;)" fill="none">
        <rect width="1440" height="560" x="0" y="0" fill="rgba(26, 27, 27, 1)"></rect>
        <path d="M0,636.527C119.904,641.698,225.206,571.581,331.404,515.675C447.334,454.645,589.864,413.358,647.457,295.683C705.257,177.585,654.289,38.535,627.979,-90.29C603.096,-212.131,586.659,-344.206,498.799,-432.212C412.832,-518.322,284.541,-546.694,163.208,-555.835C56.856,-563.847,-36.398,-500.91,-141.064,-480.419C-259.956,-457.143,-393.823,-496.668,-493.171,-427.335C-599.685,-353.002,-669.475,-227.478,-687.769,-98.886C-706.053,29.632,-662.265,161.122,-592.459,270.567C-527.77,371.989,-415.874,424.642,-313.529,487.86C-213.091,549.9,-117.944,631.44,0,636.527" fill="#121313"></path>
        <path d="M1440 1045.587C1530.039 1039.982 1611.356 992.341 1680.988 934.9839999999999 1745.224 882.072 1774.655 803.463 1819.248 733.197 1872.034 650.022 1970.085 582.684 1967.058 484.22 1964.028 385.64300000000003 1879.222 308.44399999999996 1804.222 244.39999999999998 1736.279 186.382 1647.109 170.92899999999997 1563.449 139.57100000000003 1472.223 105.37700000000001 1387.515 40.00699999999995 1290.828 51.96600000000001 1188.884 64.57600000000002 1096.434 126.40899999999999 1030.829 205.45100000000002 965.914 283.662 926.684 385.089 930.015 486.675 933.121 581.4 1004.6600000000001 654.753 1048.3220000000001 738.873 1089.4189999999999 818.0509999999999 1108.693 911.235 1178.929 966.235 1252.02 1023.471 1347.344 1051.354 1440 1045.587" fill="#222323"></path>
    </g>
    <defs>
        <mask id="SvgjsMask1089">
            <rect width="1440" height="560" fill="#ffffff"></rect>
        </mask>
    </defs>
</svg>